# This file uses centimeters as units for non-parametric coordinates.

mtllib vacum_concetrator.mtl
g default
v -3.129460 0.016271 0.020078
v -3.129460 0.189167 0.020078
v 3.129460 0.000000 -0.037189
v 3.129460 0.172897 -0.037189
v -0.051745 0.016271 4.122887
v -0.051745 0.189167 4.122887
v 0.041428 0.189167 -4.122887
v -2.542812 0.175541 -0.081164
v 2.123348 6.344953 -0.217401
v 2.123348 0.175541 0.214226
v -0.092439 0.175541 3.188522
v -0.092439 3.181569 3.188523
v -1.333374 0.175541 1.532665
v 1.286929 5.454618 1.130292
v 1.329422 3.920566 1.090236
v -1.139767 3.107371 1.761005
v -1.079429 2.003660 1.731733
v -1.379487 1.432606 1.471134
v -2.542812 3.104089 -0.081164
v -1.433786 0.175541 1.398679
v -1.690740 3.132229 1.055810
v -1.702268 2.002864 1.040427
v -1.446345 1.521667 1.381921
v -1.369719 3.614554 -2.127441
v 1.820248 6.344953 -0.636710
v -0.121050 3.162520 1.974764
v 1.002531 4.020180 0.889106
v 0.957990 5.447377 0.907294
v -1.951461 3.063211 -0.458703
v -1.391390 3.123484 0.279670
v -1.387996 2.002864 0.804905
v -1.099644 1.521667 1.122096
v -0.869629 0.175541 0.975888
v -0.851528 3.107371 0.974786
v 2.123348 1.950086 0.090075
v 2.345311 1.655956 -0.206420
v 2.345311 0.154798 -0.082268
v -1.922045 8.540627 -0.072671
v -1.967377 0.189167 -0.667569
v 1.796845 8.540627 -0.102318
v 1.774759 0.189167 -2.034723
v -0.082688 8.540627 2.381697
v -0.082688 0.189167 1.497396
v -0.082688 8.540627 -2.475907
vt 0.998047 0.001994
vt 0.998047 0.398953
vt 0.984941 0.398913
vt 0.984941 0.001953
vt 0.984941 0.791629
vt 0.984941 0.402868
vt 0.998047 0.402868
vt 0.998047 0.791629
vt 0.679745 0.397405
vt 0.305523 0.502730
vt 0.305523 0.105770
vt 0.679581 0.001953
vt 0.671336 0.959526
vt 0.551201 0.891876
vt 0.555469 0.775591
vt 0.652121 0.626141
vt 0.829827 0.882196
vt 0.695619 0.876722
vt 0.696448 0.792912
vt 0.975722 0.881996
vt 0.835566 0.782130
vt 0.867342 0.745157
vt 0.972269 0.660043
vt 0.363346 0.938421
vt 0.363346 0.738298
vt 0.393189 0.734724
vt 0.421244 0.866875
vt 0.508407 0.984127
vt 0.513485 0.876006
vt 0.957169 0.001953
vt 0.963454 0.139683
vt 0.927119 0.154439
vt 0.927119 0.004115
vt 0.088599 0.752711
vt 0.025960 0.840344
vt 0.001953 0.782035
vt 0.045125 0.721637
vt 0.912663 0.497875
vt 0.922027 0.412772
vt 0.951796 0.412772
vt 0.975465 0.503545
vt 0.922027 0.364021
vt 0.954867 0.364021
vt 0.922027 0.261974
vt 0.975465 0.261974
vt 0.492407 0.901204
vt 0.511473 0.840663
vt 0.001953 0.591610
vt 0.363346 0.491724
vt 0.644477 0.491521
vt 0.672549 0.489924
vt 0.680191 0.603842
vt 0.666916 0.749221
vt 0.829827 0.654343
vt 0.672982 0.653952
vt 0.363346 0.719576
vt 0.835566 0.884176
vt 0.864553 0.659586
vt 0.066375 0.695243
vt 0.001953 0.061944
vt 0.298436 0.001953
vt 0.298436 0.651708
vt 0.917863 0.021330
vt 0.903074 0.655799
vt 0.686190 0.638520
vt 0.686190 0.001953
vt 0.355488 0.872875
vt 0.132054 0.937106
vt 0.132054 0.700996
vt 0.354222 0.643486
vt 0.538502 0.985527
vt 0.542771 0.869242
vn 0.794361 0.000000 0.607447
vn 0.794361 0.000000 0.607446
vn 0.794361 0.000000 0.607447
vn 0.794361 0.000000 0.607446
vn -0.799943 0.000000 0.600076
vn -0.799943 0.000000 0.600076
vn -0.799943 0.000000 0.600076
vn -0.799943 0.000000 0.600076
vn 0.002582 0.999995 -0.001937
vn 0.002600 0.999997 0.000055
vn 0.002600 0.999997 -0.000000
vn 0.002618 0.999995 0.002004
vn 0.846780 0.009568 0.531858
vn 0.821594 0.038636 0.568762
vn 0.827567 0.031305 0.560494
vn 0.812335 0.026558 0.582586
vn -0.823975 -0.010242 0.566534
vn -0.803359 -0.059633 0.592501
vn -0.811507 0.011091 0.584238
vn -0.800222 -0.000000 0.599704
vn -0.800222 -0.000000 0.599704
vn -0.800222 -0.000000 0.599704
vn -0.800222 -0.000000 0.599704
vn -0.325184 0.945623 -0.007175
vn -0.291003 0.908117 0.301066
vn -0.298539 0.954389 0.004048
vn -0.091428 0.825251 0.557317
vn -0.531794 -0.036823 0.846073
vn -0.555600 -0.029556 0.830924
vn -0.535935 -0.035571 0.843509
vn -0.560496 -0.028040 0.827682
vn -0.288215 0.871462 0.396845
vn -0.386736 0.873314 0.296239
vn -0.310305 0.873349 0.375462
vn -0.395886 0.872573 0.286167
vn 0.667689 0.682492 0.297313
vn 0.430731 0.891263 0.141851
vn 0.092978 0.992381 0.080843
vn 0.219264 0.945414 0.241074
vn 0.581381 0.245302 0.775773
vn 0.746950 0.255343 0.613894
vn 0.583219 0.232852 0.778226
vn 0.588707 0.190622 0.785549
vn 0.599631 0.015555 0.800125
vn 0.599631 0.015555 0.800125
vn -0.050546 0.998581 -0.016743
vn -0.050197 0.998570 -0.018402
vn 0.311469 0.864614 0.394246
vn 0.811331 0.007566 0.584538
vn 0.801491 0.042216 0.596514
vn 0.816995 0.040940 0.575190
vn 0.801206 0.049320 0.596353
vn -0.816533 0.008443 0.577238
vn -0.780225 0.052680 0.623277
vn -0.800222 -0.000000 0.599704
vn 0.814904 0.008107 0.579539
vn -0.800222 0.000000 0.599704
vn -0.800223 -0.000000 0.599703
vn 0.795824 -0.063760 0.602162
vn 0.866609 -0.101450 0.488565
vn 0.825000 -0.078468 0.559659
vn 0.879769 -0.109376 0.462647
vn -0.753556 -0.042638 0.656000
vn -0.764273 -0.047415 0.643148
vn -0.790184 -0.059356 0.609989
vn -0.798614 -0.063372 0.598498
vn 0.000000 1.000000 -0.000000
vn 0.000000 1.000000 -0.000000
vn 0.000000 1.000000 -0.000000
vn 0.000000 1.000000 0.000000
s 1
g vacum_concetrator
usemtl vacum_concetrator_tex
f 5/1/1 3/2/2 6/4/3
f 6/4/3 3/2/2 4/3/4
s 2
f 1/5/5 5/6/6 2/8/7
f 2/8/7 5/6/6 6/7/8
s 3
f 6/10/9 4/11/10 2/9/11
f 2/9/11 4/11/10 7/12/12
s 4
f 14/14/13 15/15/14 9/13/15
f 9/13/15 15/15/14 35/16/16
s 5
f 12/17/17 16/18/18 17/19/19
s 6
f 23/21/20 22/22/21 8/20/22
f 8/20/22 22/22/21 19/23/23
s 7
f 12/24/24 15/25/25 26/27/26
f 26/27/26 15/25/25 27/26/27
s 8
f 15/72/28 14/71/29 27/29/30
f 27/29/30 14/71/29 28/28/31
s 9
f 14/30/32 9/31/33 28/33/34
f 28/33/34 9/31/33 25/32/35
s 10
f 21/35/36 30/36/37 19/34/38
f 19/34/38 30/36/37 29/37/39
f 22/39/40 31/40/41 21/38/36
f 21/38/36 31/40/41 30/41/37
f 22/39/40 23/42/42 31/40/41
f 31/40/41 23/42/42 32/43/43
f 23/42/42 20/44/44 32/43/43
f 32/43/43 20/44/44 33/45/45
s 7
f 12/24/24 26/27/26 16/46/46
f 16/46/46 26/27/26 34/47/47
s 10
f 24/48/48 19/34/38 29/37/39
s 4
f 35/16/16 11/49/49 10/50/50
f 35/16/16 10/50/50 36/52/51
f 36/52/51 10/50/50 37/51/52
s 5
f 12/17/17 17/19/19 11/54/53
f 11/54/53 17/19/19 18/53/54
f 11/54/53 18/53/54 13/55/55
s 4
f 15/15/14 12/56/56 35/16/16
f 35/16/16 12/56/56 11/49/49
s 6
f 20/57/57 23/21/20 8/20/22
f 19/23/23 22/22/21 21/58/58
s 13
f 42/59/59 43/60/60 40/62/61
f 40/62/61 43/60/60 41/61/62
s 14
f 39/64/63 43/65/64 38/63/65
f 38/63/65 43/65/64 42/66/66
s 15
f 42/68/67 40/69/68 38/67/69
f 38/67/69 40/69/68 44/70/70
