# This file uses centimeters as units for non-parametric coordinates.

mtllib autoclave.mtl
g default
v -1.489538 6.621464 0.399363
v 1.489538 6.621464 0.548932
v -0.898517 6.661212 0.363419
v 0.921948 6.661212 0.073076
v 1.316546 6.932466 -0.631484
v 1.479893 6.888663 -0.374633
v 0.912737 6.866748 -0.494559
v 1.560953 6.821710 0.017640
v 1.485452 6.753500 0.564835
v 0.916708 6.792969 0.090716
v -1.482236 6.889085 -0.376978
v -1.413462 6.915595 -0.529543
v -0.891213 6.875264 -0.211993
v -1.568701 6.821391 0.019435
v -0.901025 6.792650 0.382854
v -1.496879 6.752161 0.423186
v 1.701192 6.964946 -0.544797
v 1.447121 7.049229 -1.036266
v 1.051395 7.116118 -1.426298
v 0.552751 7.159061 -1.676714
v 0.000000 7.173860 -1.763001
v -0.552750 7.159061 -1.676714
v -1.051394 7.116117 -1.426298
v -1.447119 7.049229 -1.036266
v -1.701191 6.964946 -0.544797
v -1.788738 6.871517 0.000000
v -1.701191 6.778089 0.544798
v -1.447119 6.693805 1.036267
v -1.051394 6.626917 1.426298
v -0.552750 6.583973 1.676714
v 0.000000 6.569176 1.763001
v 0.552751 6.583973 1.676714
v 1.051394 6.626917 1.426298
v 1.447119 6.693805 1.036266
v 1.701191 6.778089 0.544798
v 1.788738 6.871517 0.000000
v 1.267078 7.001791 -0.759633
v 1.489539 6.940007 -0.399363
v 0.920586 7.050822 -1.045545
v 0.483981 7.082303 -1.229112
v 0.000000 7.093150 -1.292365
v -0.483980 7.082303 -1.229112
v -0.920585 7.050822 -1.045545
v -1.267077 7.001791 -0.759633
v -1.489538 6.940007 -0.399362
v -1.566193 6.871519 0.000001
v -1.489538 6.803030 0.399363
v -1.267077 6.741247 0.759634
v -0.920585 6.692214 1.045546
v -0.483980 6.660734 1.229113
v 0.000000 6.649888 1.292366
v 0.483980 6.660734 1.229113
v 0.920585 6.692214 1.045546
v 1.267077 6.741247 0.759634
v 1.489538 6.803030 0.399363
v 1.566193 6.871519 0.000000
v 1.267078 6.820225 -0.759633
v 1.489539 6.758441 -0.399363
v 0.920586 6.869256 -1.045545
v 0.483981 6.900736 -1.229112
v 0.000000 6.911584 -1.292365
v -0.483980 6.900736 -1.229112
v -0.920585 6.869256 -1.045545
v -1.267077 6.820225 -0.759633
v -1.489538 6.758441 -0.399362
v -1.566193 6.689953 0.000001
v -1.489538 6.621464 0.399363
v -1.267077 6.559680 0.759634
v -0.920585 6.510649 1.045546
v -0.483980 6.479168 1.229113
v 0.000000 6.468322 1.292366
v 0.483980 6.479168 1.229113
v 0.920585 6.510649 1.045546
v 1.267077 6.559680 0.759634
v 1.489538 6.621464 0.399363
v 1.566193 6.689953 0.000000
v 0.531721 6.744621 -0.583497
v 0.625073 6.718694 -0.432312
v 0.386317 6.765196 -0.703478
v 0.203099 6.778407 -0.780511
v 0.000000 6.782959 -0.807054
v -0.203099 6.778407 -0.780511
v -0.386316 6.765196 -0.703478
v -0.531720 6.744621 -0.583497
v -0.625073 6.718694 -0.432312
v -0.657242 6.689953 -0.264722
v -0.625073 6.661212 -0.097133
v -0.531720 6.635285 0.054052
v -0.386316 6.614709 0.174033
v -0.203099 6.601499 0.251066
v 0.000000 6.596947 0.277608
v 0.203099 6.601499 0.251066
v 0.386316 6.614709 0.174033
v 0.531720 6.635285 0.054052
v 0.625073 6.661212 -0.097133
v 0.657242 6.689953 -0.264723
v 0.531721 6.088446 -0.583497
v 0.625073 6.062519 -0.432312
v 0.386317 6.109021 -0.703478
v 0.203099 6.122232 -0.780511
v 0.000000 6.126784 -0.807054
v -0.203099 6.122232 -0.780511
v -0.386316 6.109021 -0.703478
v -0.531720 6.088446 -0.583497
v -0.625073 6.062519 -0.432312
v -0.657242 6.033778 -0.264722
v 0.657242 6.033778 -0.264723
v 1.788738 0.000000 0.000000
v -1.788738 0.000000 0.000000
v -1.701191 -0.000001 0.544798
v -1.447119 -0.000002 1.036267
v -1.051394 -0.000003 1.426298
v -0.552750 -0.000003 1.676714
v 0.000000 -0.000003 1.763001
v 0.552751 -0.000003 1.676714
v 1.051394 -0.000003 1.426298
v 1.447119 -0.000002 1.036266
v 1.701191 -0.000001 0.544798
v 0.859818 5.010315 1.522507
v -1.788738 5.808777 0.000000
v -1.701191 5.808777 0.544798
v -1.447119 5.808777 1.036267
v -1.051394 5.752888 1.426298
v -0.552750 5.641112 1.676714
v 0.000000 5.596401 1.763001
v 0.797945 1.179204 1.553579
v -1.788738 1.075949 0.000000
v -1.701191 1.075950 0.544798
v -1.447119 0.977519 1.036267
v -1.051394 0.756050 1.426298
v -0.552750 0.669922 1.676714
v -0.215440 0.695191 1.729370
v -1.670258 5.808777 -0.019039
v -1.585762 5.808777 0.506773
v -1.670258 1.075949 -0.019039
v -1.585762 1.075950 0.506773
v -1.349288 5.808777 0.964201
v -1.349288 0.977519 0.964201
v -0.980633 5.752888 1.327552
v -0.980633 0.756050 1.327552
v -0.515682 5.641112 1.561048
v -0.515682 0.669922 1.561048
v -0.003873 5.596847 1.640944
v -0.219313 0.695636 1.607312
v 0.833831 5.011176 1.405357
v 0.771958 1.180064 1.436430
v -1.767406 1.075949 -0.076727
v -1.704613 1.075949 -0.098309
v -1.738953 1.075949 -0.111028
vt 0.217520 0.202637
vt 0.234158 0.175397
vt 0.276428 0.190176
vt 0.075270 0.301943
vt 0.068382 0.285761
vt 0.130002 0.269593
vt 0.060058 0.243886
vt 0.130002 0.207251
vt 0.068141 0.201483
vt 0.217736 0.301188
vt 0.209472 0.244014
vt 0.276428 0.251405
vt 0.039308 0.314312
vt 0.039307 0.237325
vt 0.053116 0.237325
vt 0.053116 0.314287
vt 0.015763 0.126342
vt 0.015736 0.187938
vt 0.001953 0.188465
vt 0.001953 0.126336
vt 0.001953 0.258073
vt 0.019903 0.202829
vt 0.039204 0.221392
vt 0.024767 0.261686
vt 0.054045 0.155836
vt 0.067945 0.187532
vt 0.101038 0.121694
vt 0.108176 0.163420
vt 0.156282 0.103744
vt 0.155958 0.151416
vt 0.214368 0.103744
vt 0.206615 0.152695
vt 0.269612 0.121694
vt 0.255188 0.167133
vt 0.316605 0.155836
vt 0.296923 0.193315
vt 0.350747 0.202829
vt 0.327733 0.228679
vt 0.368697 0.258073
vt 0.344604 0.269763
vt 0.368697 0.316159
vt 0.345883 0.312546
vt 0.350747 0.371403
vt 0.331446 0.352840
vt 0.316605 0.418396
vt 0.302705 0.386700
vt 0.269612 0.452538
vt 0.262475 0.410812
vt 0.214369 0.470488
vt 0.214692 0.422816
vt 0.156282 0.470488
vt 0.164035 0.421537
vt 0.101038 0.452538
vt 0.115462 0.407099
vt 0.054045 0.418396
vt 0.073728 0.380917
vt 0.019903 0.371403
vt 0.042917 0.345553
vt 0.001953 0.316159
vt 0.026047 0.304469
vt 0.959984 0.745572
vt 0.953571 0.701625
vt 0.972416 0.701625
vt 0.978829 0.745572
vt 0.948482 0.654998
vt 0.967327 0.654998
vt 0.945215 0.605839
vt 0.964060 0.605839
vt 0.944089 0.555179
vt 0.962934 0.555179
vt 0.945215 0.504518
vt 0.964060 0.504518
vt 0.948482 0.455359
vt 0.967327 0.455359
vt 0.953571 0.408733
vt 0.972416 0.408733
vt 0.959984 0.364785
vt 0.978829 0.364785
vt 0.954371 0.001953
vt 0.954372 0.044755
vt 0.935788 0.047885
vt 0.935788 0.005083
vt 0.325683 0.156937
vt 0.325683 0.114135
vt 0.344266 0.117265
vt 0.344266 0.160067
vt 0.783873 0.847605
vt 0.743196 0.829718
vt 0.752382 0.751394
vt 0.769431 0.758901
vt 0.708572 0.798034
vt 0.737880 0.738105
vt 0.683396 0.755636
vt 0.727346 0.720336
vt 0.670164 0.706667
vt 0.721810 0.699824
vt 0.670188 0.655948
vt 0.721815 0.678573
vt 0.683436 0.608462
vt 0.727361 0.658666
vt 0.708588 0.568848
vt 0.737899 0.642053
vt 0.743184 0.540968
vt 0.752401 0.630358
vt 0.783846 0.527546
vt 0.769448 0.624726
vt 0.826602 0.529898
vt 0.787373 0.625710
vt 0.867271 0.547796
vt 0.804423 0.633214
vt 0.901872 0.579494
vt 0.818928 0.646504
vt 0.927013 0.621890
vt 0.829465 0.664279
vt 0.940231 0.670833
vt 0.835004 0.684799
vt 0.940231 0.721528
vt 0.835001 0.706054
vt 0.927016 0.769012
vt 0.829458 0.725962
vt 0.901881 0.808635
vt 0.818916 0.742575
vt 0.867291 0.836523
vt 0.804410 0.754266
vt 0.826630 0.849949
vt 0.787359 0.759892
vt 0.141435 0.338193
vt 0.138744 0.319750
vt 0.206850 0.319750
vt 0.209541 0.338193
vt 0.136609 0.300184
vt 0.204715 0.300184
vt 0.135238 0.279555
vt 0.203344 0.279555
vt 0.134765 0.258295
vt 0.202871 0.258295
vt 0.135238 0.237036
vt 0.203344 0.237036
vt 0.136609 0.216407
vt 0.204715 0.216407
vt 0.138744 0.196840
vt 0.206850 0.196840
vt 0.141435 0.178398
vt 0.209541 0.178398
vt 0.144418 0.160686
vt 0.212525 0.160686
vt 0.144418 0.355905
vt 0.212525 0.355905
vt 0.059286 0.703373
vt 0.001953 0.712699
vt 0.002666 0.602397
vt 0.059936 0.602767
vt 0.116765 0.694996
vt 0.117359 0.603139
vt 0.174479 0.688426
vt 0.175066 0.597711
vt 0.232422 0.684344
vt 0.233055 0.586484
vt 0.290497 0.683183
vt 0.291150 0.582218
vt 0.348544 0.685321
vt 0.384209 0.521987
vt 0.406460 0.689778
vt 0.377023 0.124346
vt 0.406460 0.001953
vt 0.464130 0.696721
vt 0.464130 0.001953
vt 0.521554 0.705469
vt 0.521554 0.001953
vt 0.578825 0.715166
vt 0.578825 0.001953
vt 0.638281 0.535328
vt 0.583006 0.535328
vt 0.583006 0.044096
vt 0.638281 0.044096
vt 0.691728 0.535328
vt 0.691728 0.033879
vt 0.745453 0.529527
vt 0.745453 0.010892
vt 0.799455 0.517926
vt 0.799455 0.001953
vt 0.853221 0.513331
vt 0.830589 0.004622
vt 0.943359 0.452273
vt 0.935113 0.054653
vt 0.348544 0.001953
vt 0.062361 0.120181
vt 0.005109 0.121657
vt 0.002230 0.010019
vt 0.059482 0.008542
vt 0.119503 0.108488
vt 0.116887 0.007062
vt 0.176561 0.084022
vt 0.174538 0.005575
vt 0.234227 0.073593
vt 0.232434 0.004082
vt 0.269717 0.075301
vt 0.290481 0.002586
vt 0.596289 0.649914
vt 0.639373 0.687646
vt 0.588366 0.647560
vt 0.669171 0.737786
vt 0.657465 0.742479
vt 0.629666 0.695701
vt 0.683615 0.798165
vt 0.671058 0.799312
vt 0.679899 0.856648
vt 0.667587 0.853939
vt 0.667008 0.889759
vt 0.656249 0.883057
vt 0.592337 0.981105
vt 0.583006 0.972856
vt 0.998047 0.001953
vt 0.998047 0.399659
vt 0.985593 0.399803
vt 0.985593 0.002097
vt 0.583781 0.648171
vt 0.583006 0.651892
vt 0.588083 0.659284
vn -0.051183 0.985897 0.159334
vn -0.083896 0.972082 0.219129
vn -0.067343 0.988153 0.137911
vn -0.022015 0.986625 0.161515
vn -0.022421 0.986380 0.162948
vn -0.029394 0.989133 0.144052
vn -0.035202 0.987036 0.156592
vn -0.037513 0.988412 0.147088
vn -0.054700 0.982474 0.178192
vn -0.030720 0.992363 0.119463
vn -0.027779 0.989169 0.144130
vn -0.043082 0.990175 0.133032
vn -0.642482 -0.126735 0.755748
vn -0.641073 -0.113062 0.759106
vn -0.642310 -0.124996 0.756184
vn -0.640884 -0.111318 0.759523
vn 0.071488 -0.174974 0.981974
vn 0.075900 -0.148582 0.985983
vn 0.072212 -0.170675 0.982678
vn 0.076590 -0.144409 0.986550
vn 0.000006 0.985612 0.169024
vn 0.000006 0.985612 0.169025
vn 0.000005 0.985612 0.169025
vn 0.000006 0.985612 0.169025
vn 0.000005 0.985613 0.169021
vn 0.000006 0.985613 0.169020
vn 0.000002 0.985612 0.169023
vn 0.000003 0.985612 0.169025
vn 0.000000 0.985613 0.169020
vn 0.000000 0.985613 0.169021
vn -0.000000 0.985612 0.169023
vn 0.000000 0.985612 0.169022
vn -0.000002 0.985612 0.169022
vn -0.000001 0.985613 0.169021
vn -0.000003 0.985612 0.169022
vn -0.000004 0.985613 0.169021
vn -0.000005 0.985613 0.169020
vn -0.000006 0.985613 0.169019
vn -0.000006 0.985612 0.169023
vn -0.000006 0.985612 0.169024
vn -0.000005 0.985612 0.169025
vn -0.000007 0.985612 0.169025
vn -0.000002 0.985612 0.169026
vn -0.000002 0.985612 0.169025
vn -0.000003 0.985611 0.169029
vn -0.000003 0.985611 0.169031
vn -0.000001 0.985612 0.169026
vn -0.000001 0.985612 0.169026
vn -0.000002 0.985611 0.169028
vn -0.000002 0.985612 0.169025
vn 0.000000 0.985611 0.169031
vn 0.000000 0.985611 0.169028
vn 0.000002 0.985611 0.169028
vn 0.000002 0.985612 0.169026
vn 0.000002 0.985611 0.169028
vn 0.000001 0.985611 0.169029
vn 0.000003 0.985611 0.169031
vn 0.000003 0.985611 0.169031
vn 0.000002 0.985612 0.169025
vn 0.000002 0.985612 0.169023
vn -0.741574 0.000000 0.670871
vn -0.759201 0.000000 0.650856
vn -0.923597 0.000000 0.383366
vn -0.936957 0.000000 0.349444
vn -0.507067 0.000000 0.861907
vn -0.521111 0.000000 0.853489
vn -0.255242 0.000000 0.966877
vn -0.262586 0.000000 0.964909
vn 0.000000 0.000000 1.000000
vn 0.000000 0.000000 1.000000
vn 0.255242 0.000000 0.966877
vn 0.262587 0.000000 0.964908
vn 0.507068 0.000000 0.861906
vn 0.521112 0.000000 0.853488
vn 0.741572 0.000000 0.670873
vn 0.759199 0.000000 0.650858
vn 0.923596 0.000000 0.383366
vn 0.936957 0.000000 0.349445
vn 0.982073 0.000000 0.188502
vn 0.982073 0.000000 0.188502
vn -0.982073 0.000000 0.188500
vn -0.982073 0.000000 0.188499
vn -0.052204 0.981153 0.186048
vn -0.050635 0.976840 0.207895
vn -0.052399 0.979854 0.192719
vn -0.048494 0.975162 0.216119
vn -0.041706 0.972155 0.230598
vn -0.036838 0.970631 0.237738
vn -0.023823 0.968185 0.249099
vn -0.018410 0.967475 0.252294
vn 0.000000 0.966626 0.256192
vn 0.000000 0.966626 0.256192
vn 0.023823 0.968185 0.249100
vn 0.018410 0.967475 0.252295
vn 0.041706 0.972155 0.230599
vn 0.036838 0.970630 0.237740
vn 0.050635 0.976839 0.207897
vn 0.048494 0.975162 0.216119
vn 0.052204 0.981153 0.186049
vn 0.052399 0.979854 0.192717
vn 0.048719 0.984704 0.167286
vn 0.049940 0.983923 0.171471
vn 0.041972 0.987468 0.152135
vn 0.043206 0.987087 0.154246
vn 0.033097 0.989524 0.140524
vn 0.033982 0.989365 0.141426
vn 0.022620 0.990966 0.132190
vn 0.022604 0.990968 0.132180
vn 0.011278 0.991802 0.127289
vn 0.010517 0.991837 0.127075
vn 0.000000 0.992062 0.125748
vn -0.000000 0.992062 0.125748
vn -0.011278 0.991802 0.127290
vn -0.010517 0.991837 0.127075
vn -0.022620 0.990966 0.132189
vn -0.022604 0.990968 0.132181
vn -0.033097 0.989524 0.140523
vn -0.033982 0.989365 0.141431
vn -0.041972 0.987468 0.152134
vn -0.043206 0.987086 0.154251
vn -0.048719 0.984704 0.167285
vn -0.049940 0.983922 0.171475
vn -0.741573 0.000000 0.670872
vn -0.759202 0.000000 0.650855
vn -0.923597 0.000000 0.383364
vn -0.936957 0.000000 0.349445
vn -0.507066 0.000000 0.861907
vn -0.521111 0.000000 0.853489
vn -0.255241 0.000000 0.966877
vn -0.262586 0.000000 0.964909
vn -0.000000 0.000000 1.000000
vn -0.000000 0.000000 1.000000
vn 0.255242 0.000000 0.966877
vn 0.262587 0.000000 0.964908
vn 0.507068 0.000000 0.861906
vn 0.521113 0.000000 0.853488
vn 0.741573 0.000000 0.670872
vn 0.759201 0.000000 0.650856
vn 0.923596 0.000000 0.383366
vn 0.936956 0.000000 0.349447
vn 0.982071 0.000000 0.188510
vn 0.982071 0.000000 0.188510
vn -0.982071 0.000000 0.188510
vn -0.982071 0.000000 0.188510
vn -0.987333 0.000000 0.158661
vn -0.987333 0.000000 0.158661
vn -0.956194 0.000000 0.292735
vn -0.951160 0.000000 0.308699
vn -0.815775 0.000000 0.578369
vn -0.802390 0.000000 0.596800
vn -0.590610 0.000000 0.806957
vn -0.567085 0.000000 0.823659
vn -0.306238 0.000000 0.951955
vn -0.289717 0.000000 0.957112
vn 0.001602 0.000000 0.999999
vn 0.128877 -0.031793 0.991151
vn 0.323058 -0.015791 0.946247
vn 0.414475 -0.008299 0.910023
vn 0.660545 0.000000 0.750787
vn 0.664034 -0.000000 0.747703
vn 0.385750 0.016116 0.922463
vn 0.813473 0.000000 0.581603
vn 0.805386 0.000000 0.592751
vn 0.954973 0.000000 0.296692
vn 0.950021 0.000000 0.312187
vn 0.987333 0.000000 0.158660
vn 0.987333 0.000000 0.158660
vn -0.950631 -0.000000 0.310325
vn -0.987333 -0.000000 0.158661
vn -0.947275 0.000000 0.320421
vn -0.987333 0.000000 0.158661
vn -0.807331 0.000000 0.590098
vn -0.786403 0.000000 0.617713
vn -0.593565 0.000000 0.804786
vn -0.557091 0.000000 0.830452
vn -0.321382 0.000000 0.946950
vn -0.341191 0.000000 0.939994
vn 0.062358 -0.009589 0.998008
vn 0.056410 0.000266 0.998408
vn 0.250557 -0.015846 0.967972
vn 0.167366 0.005293 0.985881
vn 0.260702 0.049549 0.964147
vn -0.952660 0.000000 0.304039
vn -0.987333 0.000000 0.158661
vn -0.951303 0.000000 0.308258
vn -0.987333 0.000000 0.158661
vn -0.825375 0.000000 0.564586
vn -0.811726 0.000000 0.584039
vn -0.613122 0.000000 0.789989
vn -0.586408 0.000000 0.810016
vn -0.349069 0.000000 0.937097
vn -0.311719 -0.000000 0.950174
vn 0.061787 0.057886 0.996409
vn 0.029544 0.057431 0.997912
vn -0.000001 1.000000 -0.000000
vn 0.026786 0.996329 0.081313
vn -0.000000 1.000000 -0.000000
vn 0.167291 0.957678 0.234237
vn 0.029623 0.996414 0.079258
vn 0.168160 0.958962 0.228283
vn 0.221975 0.927320 0.301339
vn 0.323074 0.917619 0.231514
vn 0.218733 0.963113 0.156743
vn 0.228049 0.960462 0.159707
vn 0.066937 0.997315 0.029695
vn 0.070747 0.997237 0.022672
vn -0.354057 0.935109 0.014643
vn -0.351005 0.936217 0.017118
vn -0.423336 0.901040 0.094407
vn -0.422825 0.900632 0.100406
vn -0.976090 0.017521 0.216658
vn -0.976091 0.017521 0.216656
vn -0.976090 0.017521 0.216658
vn -0.976091 0.017521 0.216656
vn -0.000000 1.000000 -0.000000
vn 0.000000 1.000000 -0.000001
vn 0.000002 1.000000 -0.000001
s 1
g autoclave
usemtl autoclave_tex
f 6/1/1 5/2/2 7/3/3
s 2
f 12/4/4 11/5/5 13/6/6
f 11/5/5 14/7/7 13/6/6
f 13/6/6 14/7/7 15/8/8
f 14/7/7 16/9/9 15/8/8
s 1
f 9/10/10 8/11/11 10/12/12
f 8/11/11 6/1/1 10/12/12
f 10/12/12 6/1/1 7/3/3
s 4
f 4/13/13 2/14/14 10/16/15
f 10/16/15 2/14/14 9/15/16
s 5
f 1/17/17 3/18/18 16/20/19
f 16/20/19 3/18/18 15/19/20
s 6
f 17/22/21 38/23/22 36/21/23
f 36/21/23 38/23/22 56/24/24
f 18/25/25 37/26/26 17/22/21
f 17/22/21 37/26/26 38/23/22
f 19/27/27 39/28/28 18/25/25
f 18/25/25 39/28/28 37/26/26
f 20/29/29 40/30/30 19/27/27
f 19/27/27 40/30/30 39/28/28
f 21/31/31 41/32/32 20/29/29
f 20/29/29 41/32/32 40/30/30
f 21/31/31 22/33/33 41/32/32
f 41/32/32 22/33/33 42/34/34
f 22/33/33 23/35/35 42/34/34
f 42/34/34 23/35/35 43/36/36
f 23/35/35 24/37/37 43/36/36
f 43/36/36 24/37/37 44/38/38
f 24/37/37 25/39/39 44/38/38
f 44/38/38 25/39/39 45/40/40
f 25/39/39 26/41/41 45/40/40
f 45/40/40 26/41/41 46/42/42
f 27/43/43 47/44/44 26/41/41
f 26/41/41 47/44/44 46/42/42
f 28/45/45 48/46/46 27/43/43
f 27/43/43 48/46/46 47/44/44
f 29/47/47 49/48/48 28/45/45
f 28/45/45 49/48/48 48/46/46
f 30/49/49 50/50/50 29/47/47
f 29/47/47 50/50/50 49/48/48
f 31/51/51 51/52/52 30/49/49
f 30/49/49 51/52/52 50/50/50
f 31/51/51 32/53/53 51/52/52
f 51/52/52 32/53/53 52/54/54
f 32/53/53 33/55/55 52/54/54
f 52/54/54 33/55/55 53/56/56
f 33/55/55 34/57/57 53/56/56
f 53/56/56 34/57/57 54/58/58
f 34/57/57 35/59/59 54/58/58
f 54/58/58 35/59/59 55/60/60
f 35/59/59 36/21/23 55/60/60
f 55/60/60 36/21/23 56/24/24
s 16
f 37/62/61 57/63/62 38/61/63
f 38/61/63 57/63/62 58/64/64
f 39/65/65 59/66/66 37/62/61
f 37/62/61 59/66/66 57/63/62
f 40/67/67 60/68/68 39/65/65
f 39/65/65 60/68/68 59/66/66
f 41/69/69 61/70/70 40/67/67
f 40/67/67 61/70/70 60/68/68
f 41/69/69 42/71/71 61/70/70
f 61/70/70 42/71/71 62/72/72
f 42/71/71 43/73/73 62/72/72
f 62/72/72 43/73/73 63/74/74
f 43/73/73 44/75/75 63/74/74
f 63/74/74 44/75/75 64/76/76
f 44/75/75 45/77/77 64/76/76
f 64/76/76 45/77/77 65/78/78
f 45/79/77 46/80/79 65/82/78
f 65/82/78 46/80/79 66/81/80
f 38/84/63 58/85/64 56/83/81
f 56/83/81 58/85/64 76/86/82
s 20
f 58/87/83 57/88/84 78/90/85
f 78/90/85 57/88/84 77/89/86
f 57/88/84 59/91/87 77/89/86
f 77/89/86 59/91/87 79/92/88
f 59/91/87 60/93/89 79/92/88
f 79/92/88 60/93/89 80/94/90
f 60/93/89 61/95/91 80/94/90
f 80/94/90 61/95/91 81/96/92
f 62/97/93 82/98/94 61/95/91
f 61/95/91 82/98/94 81/96/92
f 63/99/95 83/100/96 62/97/93
f 62/97/93 83/100/96 82/98/94
f 64/101/97 84/102/98 63/99/95
f 63/99/95 84/102/98 83/100/96
f 65/103/99 85/104/100 64/101/97
f 64/101/97 85/104/100 84/102/98
f 66/105/101 86/106/102 65/103/99
f 65/103/99 86/106/102 85/104/100
f 67/107/103 87/108/104 66/105/101
f 66/105/101 87/108/104 86/106/102
f 68/109/105 88/110/106 67/107/103
f 67/107/103 88/110/106 87/108/104
f 69/111/107 89/112/108 68/109/105
f 68/109/105 89/112/108 88/110/106
f 69/111/107 70/113/109 89/112/108
f 89/112/108 70/113/109 90/114/110
f 70/113/109 71/115/111 90/114/110
f 90/114/110 71/115/111 91/116/112
f 72/117/113 92/118/114 71/115/111
f 71/115/111 92/118/114 91/116/112
f 73/119/115 93/120/116 72/117/113
f 72/117/113 93/120/116 92/118/114
f 73/119/115 74/121/117 93/120/116
f 93/120/116 74/121/117 94/122/118
f 74/121/117 75/123/119 94/122/118
f 94/122/118 75/123/119 95/124/120
f 75/123/119 76/125/121 95/124/120
f 95/124/120 76/125/121 96/126/122
f 76/125/121 58/87/83 96/126/122
f 96/126/122 58/87/83 78/90/85
s 31
f 77/128/123 97/129/124 78/127/125
f 78/127/125 97/129/124 98/130/126
f 79/131/127 99/132/128 77/128/123
f 77/128/123 99/132/128 97/129/124
f 80/133/129 100/134/130 79/131/127
f 79/131/127 100/134/130 99/132/128
f 81/135/131 101/136/132 80/133/129
f 80/133/129 101/136/132 100/134/130
f 81/135/131 82/137/133 101/136/132
f 101/136/132 82/137/133 102/138/134
f 82/137/133 83/139/135 102/138/134
f 102/138/134 83/139/135 103/140/136
f 83/139/135 84/141/137 103/140/136
f 103/140/136 84/141/137 104/142/138
f 84/141/137 85/143/139 104/142/138
f 104/142/138 85/143/139 105/144/140
f 85/143/139 86/145/141 105/144/140
f 105/144/140 86/145/141 106/146/142
f 78/127/125 98/130/126 96/147/143
f 96/147/143 98/130/126 107/148/144
s 35
f 26/150/145 120/151/146 27/149/147
f 27/149/147 120/151/146 121/152/148
f 27/149/147 121/152/148 28/153/149
f 28/153/149 121/152/148 122/154/150
f 28/153/149 122/154/150 29/155/151
f 29/155/151 122/154/150 123/156/152
f 29/155/151 123/156/152 30/157/153
f 30/157/153 123/156/152 124/158/154
f 30/157/153 124/158/154 31/159/155
f 31/159/155 124/158/154 125/160/156
f 31/159/155 125/160/156 32/161/157
f 32/161/157 125/160/156 119/162/158
f 33/163/159 32/161/157 119/162/158
f 33/163/159 119/162/158 116/165/160
f 116/165/160 119/162/158 126/164/161
f 34/166/162 33/163/159 117/167/163
f 117/167/163 33/163/159 116/165/160
f 35/168/164 34/166/162 118/169/165
f 118/169/165 34/166/162 117/167/163
f 36/170/166 35/168/164 108/171/167
f 108/171/167 35/168/164 118/169/165
s 36
f 134/172/168 133/173/169 136/175/170
f 136/175/170 133/173/169 135/174/171
f 134/172/168 136/175/170 137/176/172
f 137/176/172 136/175/170 138/177/173
f 137/176/172 138/177/173 139/178/174
f 139/178/174 138/177/173 140/179/175
f 139/178/174 140/179/175 141/180/176
f 141/180/176 140/179/175 142/181/177
f 143/182/178 141/180/176 144/183/179
f 144/183/179 141/180/176 142/181/177
f 143/182/178 144/183/179 145/184/180
f 145/184/180 144/183/179 146/185/181
s 35
f 116/165/160 126/164/161 115/186/182
f 128/187/183 127/188/184 110/190/185
f 110/190/185 127/188/184 109/189/186
f 128/187/183 110/190/185 129/191/187
f 129/191/187 110/190/185 111/192/188
f 129/191/187 111/192/188 130/193/189
f 130/193/189 111/192/188 112/194/190
f 130/193/189 112/194/190 131/195/191
f 131/195/191 112/194/190 113/196/192
f 131/195/191 113/196/192 132/197/193
f 132/197/193 113/196/192 114/198/194
f 126/164/161 132/197/193 115/186/182
f 115/186/182 132/197/193 114/198/194
s 38
f 127/199/195 128/200/196 147/201/197
f 128/200/196 129/202/198 136/204/199
f 136/204/199 129/202/198 138/203/200
f 129/202/198 130/205/201 138/203/200
s 40
f 138/203/202 130/205/203 140/206/204
f 130/205/203 131/207/205 140/206/204
f 140/206/204 131/207/205 142/208/206
f 132/209/207 144/210/208 131/207/205
f 131/207/205 144/210/208 142/208/206
f 132/209/207 126/211/209 144/210/208
f 144/210/208 126/211/209 146/212/210
s 42
f 126/213/211 119/214/212 146/216/213
f 146/216/213 119/214/212 145/215/214
s 38
f 147/201/197 128/200/196 149/217/215
f 148/218/216 136/204/199 135/219/217
f 149/217/215 136/204/199 148/218/216
f 149/217/215 128/200/196 136/204/199
