# This file uses centimeters as units for non-parametric coordinates.

mtllib multyspectrometr.mtl
g default
v -2.034342 0.000000 -0.739794
v 0.418390 0.000000 2.450959
v 2.521901 0.000000 0.163673
v -1.680577 6.659077 -1.311451
v -2.034342 6.123714 -0.888715
v -2.007413 6.328588 -0.920893
v -1.930727 6.502273 -1.012531
v -1.815957 6.618324 -1.149677
v 0.787453 7.010574 2.226550
v 0.646125 6.969822 2.380225
v 0.526313 6.853770 2.510505
v 0.446257 6.680086 2.597555
v 0.418145 6.475212 2.628123
v -0.235200 7.180628 -1.912234
v 0.118752 7.210590 -2.074966
v 0.388199 7.101965 -2.281756
v 2.557260 6.723407 0.163674
v 2.529520 6.928281 0.193836
v 2.450524 7.101965 0.279734
v 2.332297 7.218017 0.408290
v 2.192840 7.258769 0.559931
v 0.204014 0.000000 2.159061
v 0.229914 6.448234 2.358202
v 0.280426 6.656330 2.359761
v 0.377923 6.832542 2.297735
v 0.510765 6.950498 2.186159
v 0.633347 6.988626 2.005634
v -1.676868 0.606743 -0.291591
v -0.118651 0.673074 1.724816
v -0.080720 0.000000 1.790307
v -1.700089 0.000000 -0.306908
v -2.164663 0.000000 0.365294
v -0.566557 0.000000 2.434972
v -1.997558 0.067791 0.132567
v -0.399842 0.091278 2.201170
v -0.313007 0.000000 2.126408
v -0.259247 0.261230 1.962993
v -1.837214 0.216322 -0.079512
v -2.574620 0.000000 -1.340843
v -2.153388 0.000000 -0.816119
v -2.162577 6.351639 -0.827565
v -0.320463 6.351638 -2.850385
v -0.254800 0.000000 -2.768589
v -2.574620 5.538110 -1.340843
v -2.395127 5.923280 -1.117251
v 1.186612 0.000000 3.344482
v 2.955613 0.000000 1.230591
v 0.575576 0.000000 2.679691
v 0.991195 6.616911 3.101053
v 1.152901 5.179095 3.315118
v 1.129376 5.893159 3.273183
v 2.760196 6.738539 0.987162
v 2.898377 5.893159 1.159292
v 2.921902 5.179095 1.201227
v 2.457901 6.839208 0.662035
v 0.573108 6.423959 2.629387
v 0.689311 6.823856 2.885489
v 0.642335 6.677823 2.772689
v 2.851760 6.389857 1.102590
v 1.082759 6.389857 3.216481
v 1.543537 0.950917 2.905181
v 1.495980 2.151703 2.945863
v 2.646863 2.219966 1.569683
v 2.684908 0.982910 1.540856
v 1.390164 0.949191 2.776832
v 2.531534 0.981184 1.412505
v 2.493489 2.218240 1.441333
v 1.342607 2.149977 2.817513
v -1.691392 5.735565 -0.410119
v -1.625178 5.810651 -0.312150
v -1.566265 5.842137 -0.228184
v -1.749531 5.633662 -0.412421
v -1.631875 5.721240 -0.008401
v -1.735326 5.670524 -0.156575
v -1.790690 5.580330 -0.234631
v -1.810755 5.478427 -0.261581
v -1.675466 3.641282 -0.308095
v -1.797220 3.851747 -0.480229
v -1.784520 3.742833 -0.460926
v -1.739017 3.664177 -0.396596
v -0.048192 4.075605 1.903198
v -0.090327 3.996421 1.843166
v -0.033535 4.180113 1.925846
v -0.206622 4.179757 2.048805
v -0.322922 3.961197 1.883108
v -0.263414 3.996065 1.966126
v -0.221278 4.075249 2.026158
v -0.110737 5.853762 1.856984
v -0.064192 5.778172 1.921809
v -0.046392 5.672166 1.944803
v -0.172537 5.877031 1.769113
v -0.300095 5.841475 1.909068
v -0.173950 5.636610 2.084759
v -0.191751 5.742616 2.061765
v -0.238295 5.818205 1.996940
vt 0.281728 0.663178
vt 0.095765 0.665989
vt 0.315547 0.258910
vt 0.026022 0.247116
vt 0.325335 0.198153
vt 0.029519 0.186126
vt 0.302737 0.079938
vt 0.054521 0.031730
vt 0.320945 0.213199
vt 0.023471 0.201118
vt 0.317610 0.228389
vt 0.022426 0.216390
vt 0.315746 0.243655
vt 0.023210 0.231746
vt 0.300377 0.025835
vt 0.298359 0.051773
vt 0.061657 0.001953
vt 0.058195 0.016855
vt 0.564555 0.508273
vt 0.332552 0.489366
vt 0.567595 0.493336
vt 0.329575 0.474408
vt 0.058365 0.716691
vt 0.031966 0.717789
vt 0.001953 0.246138
vt 0.002007 0.230892
vt 0.003452 0.215638
vt 0.006165 0.200455
vt 0.009813 0.185425
vt 0.528209 0.532310
vt 0.556001 0.520918
vt 0.543245 0.529363
vt 0.092328 0.715284
vt 0.325335 0.705689
vt 0.285469 0.707333
vt 0.829611 0.439276
vt 0.807975 0.434218
vt 0.830966 0.250947
vt 0.808478 0.243517
vt 0.652015 0.112276
vt 0.625782 0.110425
vt 0.662842 0.077739
vt 0.787349 0.428223
vt 0.787349 0.237449
vt 0.863730 0.444120
vt 0.866434 0.258158
vt 0.654820 0.135792
vt 0.644327 0.133761
vt 0.662842 0.156259
vt 0.743688 0.998047
vt 0.544998 0.997599
vt 0.744602 0.534648
vt 0.544998 0.534137
vt 0.925266 0.292615
vt 0.926200 0.696659
vt 0.904283 0.264562
vt 0.783278 0.532240
vt 0.576414 0.519114
vt 0.780493 0.499146
vt 0.579490 0.488277
vt 0.622460 0.071934
vt 0.616665 0.159467
vt 0.582198 0.001953
vt 0.576685 0.379779
vt 0.577160 0.431991
vt 0.778239 0.434960
vt 0.577609 0.468620
vt 0.778688 0.471588
vt 0.777765 0.382748
vt 0.970720 0.203263
vt 0.943802 0.210748
vt 0.963761 0.187041
vt 0.419877 0.654640
vt 0.329575 0.652870
vt 0.419877 0.524843
vt 0.332201 0.521917
vt 0.783278 0.004921
vt 0.752188 0.076183
vt 0.944428 0.131750
vt 0.944428 0.001953
vt 0.959020 0.131750
vt 0.959020 0.001953
vt 0.001953 0.092272
vt 0.001953 0.001953
vt 0.016545 0.092272
vt 0.016545 0.001953
vt 0.747462 0.166379
vt 0.993186 0.239291
vt 0.938997 0.229902
vt 0.996838 0.695615
vt 0.930964 0.318313
vt 0.930964 0.696180
vt 0.933960 0.266185
vt 0.819043 0.771809
vt 0.803554 0.771978
vt 0.817283 0.665477
vt 0.803427 0.663109
vt 0.815317 0.641505
vt 0.801461 0.639137
vt 0.808248 0.471100
vt 0.791837 0.461692
vt 0.792793 0.453922
vt 0.809682 0.457482
vt 0.795670 0.444117
vt 0.813649 0.448746
vt 0.803057 0.439790
vt 0.819121 0.443148
vt 0.803632 0.787727
vt 0.803567 0.779852
vt 0.819121 0.787558
vt 0.819056 0.779684
vt 0.802984 0.655102
vt 0.816840 0.657469
vt 0.802109 0.647130
vt 0.815965 0.649498
vt 0.787349 0.054193
vt 0.789343 0.040645
vt 0.935699 0.015362
vt 0.933034 0.007690
vt 0.567595 0.002808
vt 0.340883 0.001953
vt 0.369221 0.513651
vt 0.341133 0.502070
vt 0.354004 0.510601
vt 0.935699 0.204673
vt 0.934105 0.212385
vt 0.799905 0.224281
vt 0.802567 0.231846
vt 0.926624 0.002700
vt 0.794965 0.032871
vt 0.918536 0.001953
vt 0.801968 0.029372
vt 0.808765 0.236934
vt 0.929041 0.218415
vt 0.816703 0.238075
vt 0.921723 0.221321
vt 0.877109 0.696772
vt 0.877109 0.233373
vn -0.791418 0.014861 0.611095
vn -0.807404 -0.002563 0.589994
vn -0.814831 0.000051 0.579698
vn -0.819921 -0.004551 0.572458
vn -0.287562 0.951875 0.106029
vn -0.163734 0.983726 0.073993
vn -0.219106 0.971245 0.093141
vn -0.086001 0.994742 0.055604
vn -0.352819 0.922877 0.154327
vn -0.384500 0.905823 0.177890
vn -0.610397 0.708029 0.355120
vn -0.616870 0.699698 0.360410
vn -0.775710 0.381332 0.502852
vn -0.771725 0.394480 0.498824
vn 0.237327 0.952452 -0.191081
vn 0.067093 0.995575 -0.065797
vn 0.396608 0.847127 -0.353664
vn 0.276090 0.928350 -0.248878
vn 0.755603 0.009990 0.654954
vn 0.755805 -0.009861 0.654723
vn 0.755388 -0.003708 0.655268
vn 0.750602 -0.007647 0.660710
vn -0.808257 -0.013601 0.588673
vn -0.806296 -0.015061 0.591321
vn -0.819792 -0.009035 0.572590
vn -0.778439 0.371831 0.505741
vn -0.624851 0.689093 0.367032
vn -0.387995 0.903802 0.180558
vn -0.165733 0.986013 0.017638
vn 0.755873 0.081279 0.649654
vn 0.756193 0.027211 0.653783
vn 0.736057 0.000004 0.676919
vn -0.791418 0.014861 0.611095
vn -0.791418 0.014861 0.611094
vn -0.791418 0.014861 0.611095
vn -0.597632 0.667924 0.443523
vn -0.326654 0.914985 0.236855
vn -0.580714 0.686573 0.437480
vn -0.331896 0.909052 0.251930
vn 0.779924 0.133539 0.611462
vn 0.784386 0.136002 0.605179
vn 0.766420 0.104853 0.633724
vn -0.200340 0.969025 0.144407
vn -0.249465 0.949033 0.192625
vn -0.670841 0.547333 0.500400
vn -0.677152 0.529563 0.510910
vn 0.757561 0.216219 0.615914
vn 0.787069 0.200124 0.583500
vn 0.755356 0.210213 0.620683
vn 0.541562 0.002298 0.840658
vn 0.722816 0.005935 0.691015
vn 0.690112 0.012805 0.723589
vn 0.739262 0.016312 0.673221
vn -0.779814 0.000000 0.626011
vn -0.779814 0.000000 0.626011
vn -0.779815 -0.000000 0.626010
vn 0.171061 0.974858 0.142798
vn 0.286542 0.879843 0.379169
vn 0.441184 0.812159 0.381778
vn 0.431739 0.750803 0.499897
vn 0.766866 0.008630 0.641749
vn 0.766867 0.008630 0.641749
vn -0.346706 0.003061 0.937969
vn -0.033802 0.019233 0.999244
vn 0.533697 0.099245 0.839832
vn 0.763286 0.096899 0.638753
vn 0.550867 0.278446 0.786774
vn 0.737006 0.254492 0.626144
vn 0.766742 0.019948 0.641645
vn -0.735703 -0.167287 0.656320
vn 0.766866 0.008630 0.641749
vn 0.766866 0.008630 0.641749
vn 0.766866 0.008630 0.641749
vn 0.766867 0.008630 0.641749
vn 0.766866 0.008630 0.641749
vn 0.766866 0.008630 0.641749
vn -0.018158 0.999801 0.008254
vn -0.018159 0.999801 0.008254
vn -0.018158 0.999801 0.008254
vn -0.018159 0.999801 0.008254
vn -0.641072 -0.037579 0.766560
vn -0.641070 -0.037580 0.766562
vn -0.641071 -0.037579 0.766561
vn -0.641070 -0.037580 0.766562
vn 0.766866 0.008630 0.641749
vn -0.758677 -0.003323 0.651458
vn -0.739273 -0.000212 0.673406
vn 0.578530 -0.048065 0.814244
vn 0.590875 -0.046240 0.805437
vn 0.725244 0.009144 0.688431
vn 0.736328 0.020509 0.676313
vn -0.181650 0.979823 0.083366
vn -0.204428 0.974385 0.093714
vn -0.471175 0.828531 0.302540
vn -0.491511 0.816881 0.301865
vn -0.725488 0.680975 0.099704
vn -0.743601 0.659559 0.109725
vn -0.814291 0.580456 0.000918
vn -0.905121 0.419366 -0.069913
vn -0.892248 0.445625 -0.072887
vn -0.961041 0.229837 -0.153541
vn 0.425813 -0.679522 0.597439
vn 0.508700 -0.480042 0.714692
vn 0.425812 -0.679520 0.597442
vn 0.509223 -0.478372 0.715438
vn 0.542805 0.550233 0.634513
vn 0.588055 0.472961 0.656124
vn 0.178544 0.902470 0.392007
vn 0.248565 0.860288 0.445106
vn -0.836141 -0.038393 0.547170
vn -0.801878 -0.068628 0.593533
vn -0.844339 -0.059110 0.532540
vn -0.826683 -0.066939 0.558672
vn 0.742147 -0.013916 0.670092
vn 0.735932 -0.018490 0.676803
vn 0.759161 -0.092217 0.644338
vn 0.756932 -0.026753 0.652946
vn 0.736056 -0.000004 0.676920
vn -0.833565 -0.027506 0.551736
vn -0.814555 0.001781 0.580083
vn -0.821240 0.002076 0.570580
vn -0.816267 0.001621 0.577673
vn -0.856581 -0.065905 0.511787
vn -0.768875 -0.075035 0.634982
vn -0.934007 -0.046793 0.354178
vn -0.531595 -0.117176 0.838854
vn -0.810218 0.001831 0.586126
vn -0.819979 0.001709 0.572391
vn -0.789083 0.000864 0.614286
vn -0.852338 0.006208 0.522954
s 1
g multyspectrometr
usemtl multyspectrometr_tex
f 28/1/1 29/2/2 5/3/3
f 5/3/3 29/2/2 23/4/4
f 4/5/5 27/6/6 14/7/7
f 14/7/7 27/6/6 21/8/8
f 4/5/5 8/9/9 27/6/6
f 27/6/6 8/9/9 26/10/10
f 8/9/9 7/11/11 26/10/10
f 26/10/10 7/11/11 25/12/12
f 6/13/13 24/14/14 7/11/11
f 7/11/11 24/14/14 25/12/12
f 5/3/3 23/4/4 6/13/13
f 6/13/13 23/4/4 24/14/14
f 16/15/15 15/16/16 19/17/17
f 19/17/17 15/16/16 20/18/18
f 14/7/7 21/8/8 15/16/16
f 15/16/16 21/8/8 20/18/18
s 5
f 18/19/19 12/20/20 17/21/21
f 17/21/21 12/20/20 13/22/22
s 1
f 22/23/23 2/24/24 23/4/4
f 23/4/4 2/24/24 13/25/25
f 23/4/4 13/25/25 24/14/14
f 24/14/14 13/25/25 12/26/26
f 24/14/14 12/26/26 25/12/12
f 25/12/12 12/26/26 11/27/27
f 26/10/10 25/12/12 10/28/28
f 10/28/28 25/12/12 11/27/27
f 27/6/6 26/10/10 9/29/29
f 9/29/29 26/10/10 10/28/28
s 5
f 21/30/30 19/31/31 20/32/32
s 1
f 29/2/2 30/33/33 22/23/23
f 1/34/34 31/35/35 28/1/1
s 8
f 38/36/36 34/37/37 37/38/38
f 37/38/38 34/37/37 35/39/39
s 9
f 37/40/40 30/41/41 29/42/42
s 8
f 34/37/37 32/43/43 35/39/39
f 35/39/39 32/43/43 33/44/44
f 28/45/45 38/36/36 29/46/46
f 29/46/46 38/36/36 37/38/38
s 9
f 35/47/47 36/48/48 37/40/40
f 37/40/40 36/48/48 30/41/41
f 36/48/48 35/47/47 33/49/49
s 11
f 40/50/50 43/51/51 41/52/52
f 41/52/52 43/51/51 42/53/53
f 44/54/54 39/55/55 45/56/56
s 13
f 55/57/57 57/58/58 52/59/59
f 52/59/59 57/58/58 49/60/60
f 61/61/61 62/62/62 46/63/63
f 46/63/63 62/62/62 50/64/64
f 51/65/65 53/66/66 60/67/67
f 60/67/67 53/66/66 59/68/68
f 50/64/64 54/69/69 51/65/65
f 51/65/65 54/69/69 53/66/66
f 58/70/70 49/71/60 57/72/58
f 60/67/67 59/68/68 49/60/60
f 49/60/60 59/68/68 52/59/59
s 17
f 66/73/71 67/74/72 65/75/73
f 65/75/73 67/74/72 68/76/74
s 13
f 46/63/63 47/77/75 61/61/61
f 61/61/61 47/77/75 64/78/76
s 18
f 61/79/77 64/80/78 65/81/79
f 65/81/79 64/80/78 66/82/80
s 19
f 64/83/81 63/84/82 66/85/83
f 66/85/83 63/84/82 67/86/84
s 13
f 62/62/62 63/87/85 50/64/64
f 50/64/64 63/87/85 54/69/69
f 54/69/69 63/87/85 47/77/75
f 47/77/75 63/87/85 64/78/76
f 56/88/86 60/89/67 58/70/70
f 58/70/70 60/89/67 49/71/60
f 56/88/86 48/90/87 50/91/64
f 50/91/64 48/90/87 46/92/63
f 56/88/86 51/93/65 60/89/67
f 56/88/86 50/91/64 51/93/65
s 20
f 84/94/88 83/95/89 93/96/90
f 93/96/90 83/95/89 90/97/91
f 92/98/92 91/99/93 73/100/94
f 73/100/94 91/99/93 71/101/95
f 70/102/96 74/103/97 71/101/95
f 71/101/95 74/103/97 73/100/94
f 70/102/96 69/104/98 74/103/97
f 74/103/97 69/104/98 75/105/99
f 69/104/98 72/106/100 75/105/99
f 75/105/99 72/106/100 76/107/101
f 82/108/102 81/109/103 86/110/104
f 86/110/104 81/109/103 87/111/105
f 81/109/103 83/95/89 87/111/105
f 87/111/105 83/95/89 84/94/88
f 89/112/106 94/113/107 90/97/91
f 90/97/91 94/113/107 93/96/90
f 88/114/108 95/115/109 89/112/106
f 89/112/106 95/115/109 94/113/107
f 91/99/93 92/98/92 88/114/108
f 88/114/108 92/98/92 95/115/109
s 26
f 73/116/110 74/117/111 77/118/112
f 77/118/112 74/117/111 80/119/113
s 5
f 17/21/21 13/22/22 3/120/114
f 3/120/114 13/22/22 2/121/115
f 19/31/31 9/122/116 11/123/117
f 9/122/116 10/124/118 11/123/117
f 19/31/31 11/123/117 18/19/19
f 18/19/19 11/123/117 12/20/20
s 1
f 1/34/34 28/1/1 5/3/3
f 23/4/4 29/2/2 22/23/23
s 5
f 19/31/31 21/30/30 9/122/116
s 1
f 21/8/8 27/6/6 9/29/29
s 26
f 85/125/119 86/126/120 92/127/121
f 92/127/121 86/126/120 95/128/122
f 79/129/123 75/130/124 78/131/125
f 78/131/125 75/130/124 76/132/126
f 74/117/111 75/130/124 80/119/113
f 80/119/113 75/130/124 79/129/123
f 92/127/121 73/116/110 85/125/119
f 85/125/119 73/116/110 77/118/112
f 94/133/127 87/134/128 93/135/129
f 93/135/129 87/134/128 84/136/130
f 86/126/120 87/134/128 95/128/122
f 95/128/122 87/134/128 94/133/127
s 11
f 45/56/56 40/137/50 41/138/52
f 45/56/56 39/55/55 40/137/50
