# This file uses centimeters as units for non-parametric coordinates.

mtllib immershion_refrigirator.mtl
g default
v 1.467695 1.639821 0.984567
v 2.108807 1.588346 0.252374
v 2.909418 2.113126 -0.681004
v 2.978436 5.754944 -0.798322
v 2.053801 6.394200 0.349292
v 1.528288 6.422830 0.984567
v -0.356000 6.421212 -1.308333
v 0.139180 6.328277 -1.849096
v 0.952575 5.416837 -2.887120
v 0.981918 2.138414 -2.702897
v 0.615948 1.539252 -2.528845
v -0.303718 1.640767 -1.308123
v -0.537506 0.000000 -1.305063
v -0.537506 7.684574 -1.305063
v 3.419770 0.000000 -0.912595
v 3.672883 7.684574 -1.294181
v 1.437063 0.000000 1.372671
v 1.534414 7.684574 1.372671
v 1.496150 7.684574 -4.204537
v 0.177233 7.684574 -1.433784
v 1.511416 7.684574 -3.204056
v 1.456308 7.684574 0.339489
v 2.860721 7.684574 -1.480813
v 0.177233 7.426597 -1.433784
v 1.511416 7.426597 -3.204056
v 1.456308 7.426597 0.339489
v 2.860721 7.426597 -1.480813
v 1.518436 6.423351 1.372671
v 1.457843 1.640342 1.372671
v -0.537506 1.641594 -1.305063
v 2.239141 6.393382 0.504895
v 3.163775 5.754126 -0.642719
v 3.094758 2.112308 -0.525401
v 2.294147 1.587528 0.407977
v 0.426093 1.539063 -2.678909
v 0.792063 2.138226 -2.852961
v -0.537506 6.422037 -1.305063
v 0.762720 5.416649 -3.037183
v -0.050676 6.328088 -1.999160
v 2.909765 6.957035 1.410468
v 2.259255 7.238163 0.817931
v 2.428998 7.245885 1.111168
v 2.952089 6.844994 1.527658
v 2.954752 6.510455 1.651356
v 2.750129 1.666907 1.656611
v 2.733387 1.459674 1.596171
v 2.153311 7.297734 0.863445
v 2.731922 7.185062 1.482505
v 2.039280 7.309705 0.924251
v 2.132924 7.280886 1.297983
v 2.482544 7.152881 1.654413
v 2.800855 6.883327 1.738542
v 2.808929 6.547470 1.852264
v 2.634018 1.682621 1.823416
v 2.620472 1.462720 1.758957
v 1.934523 7.272264 0.991091
v 2.679725 6.867311 1.792903
v 2.689744 6.546690 1.898821
v 2.309544 0.962785 1.417347
v 2.024925 0.811015 0.975516
v 1.854985 7.191109 1.053791
v 2.433455 1.687801 1.859470
v 2.425503 1.463173 1.794245
v 1.932746 0.855327 1.003466
v 1.812780 7.078591 1.102803
v 2.002957 7.093780 1.380628
v 2.258688 6.978086 1.685985
v 2.435833 6.776735 1.759337
v 2.446789 6.507122 1.849768
v 2.332223 1.090209 1.606801
v 1.858595 0.930744 1.010951
v 1.814329 6.951843 1.130669
v 1.992738 6.970847 1.387467
v 2.191483 6.763073 1.558731
v 2.307691 6.656824 1.564367
v 2.315442 6.439225 1.646949
v 2.227792 1.671403 1.647305
v 2.262685 1.460767 1.681357
v 2.189659 1.215298 1.549813
v 1.813763 1.025781 0.996827
v 1.859397 6.830163 1.133145
v 2.089375 6.756950 1.327131
v 2.225650 1.458882 1.587401
v 2.161426 1.291976 1.486798
v 1.805073 1.125973 0.963246
v 1.941126 6.732072 1.109852
v 2.168907 1.364431 1.411471
v 1.833851 1.216068 0.915324
v 2.273490 1.435391 1.401999
v 1.895714 1.282345 0.860350
v 2.282445 1.454774 1.266188
v 1.981244 1.314721 0.806698
v 2.304127 1.409036 1.062211
v 2.077420 1.308258 0.762536
v 2.818591 7.137805 1.373595
v 2.710380 1.303203 1.598635
v 2.588419 1.079932 1.489762
v 2.515243 1.055324 1.551476
v 2.604788 1.271313 1.743228
v 2.425352 1.058910 1.592537
v 2.428077 1.285944 1.777083
v 2.279686 1.339191 1.679715
v 2.243693 1.372739 1.594626
v -3.672883 0.000000 4.204537
v 3.606833 0.000000 4.204537
v -3.672883 0.000000 -3.075179
v 3.606833 0.000000 -3.075179
v 2.239141 6.393382 0.504895
v 3.672883 7.684574 -1.294181
v 1.534414 7.684574 1.372671
v 1.518436 6.423351 1.372671
v -0.537506 0.000000 -1.305063
v 1.437063 0.000000 1.372671
v 1.457843 1.640342 1.372671
v -0.537506 1.641594 -1.305063
v 1.511416 7.426597 -3.204056
v 0.177233 7.426597 -1.433784
v 1.456308 7.426597 0.339489
v 2.860721 7.426597 -1.480813
v 1.496150 7.684574 -4.204537
v -0.537506 7.684574 -1.305063
v 0.177233 7.684574 -1.433784
v 1.511416 7.684574 -3.204056
v 1.456308 7.684574 0.339489
v 2.860721 7.684574 -1.480813
v -0.537506 6.422037 -1.305063
v 2.294147 1.587528 0.407977
v 0.426093 1.539063 -2.678909
v 3.094758 2.112308 -0.525401
v 0.792063 2.138226 -2.852961
v 3.163775 5.754126 -0.642719
v 0.762720 5.416649 -3.037183
v -0.050676 6.328088 -1.999160
v 3.419770 0.000000 -0.912595
v 2.153311 7.297734 0.863445
v 2.428998 7.245885 1.111168
v 2.259255 7.238163 0.817931
v 2.731922 7.185062 1.482505
v 2.818591 7.137805 1.373595
v 2.952089 6.844994 1.527658
v 2.909765 6.957035 1.410468
v 2.039280 7.309705 0.924251
v 2.132924 7.280886 1.297983
v 2.482544 7.152881 1.654413
v 2.800855 6.883327 1.738542
v 2.808929 6.547470 1.852264
v 2.954752 6.510455 1.651356
v 2.634018 1.682621 1.823416
v 2.750129 1.666907 1.656611
v 2.620472 1.462720 1.758957
v 2.733387 1.459674 1.596171
v 1.934523 7.272264 0.991091
v 2.679725 6.867311 1.792903
v 2.689744 6.546690 1.898821
v 1.854985 7.191109 1.053791
v 2.433455 1.687801 1.859470
v 2.425503 1.463173 1.794245
v 2.309544 0.962785 1.417347
v 1.932746 0.855327 1.003466
v 2.024925 0.811015 0.975516
v 1.812780 7.078591 1.102803
v 2.002957 7.093780 1.380628
v 2.258688 6.978086 1.685985
v 2.435833 6.776735 1.759337
v 2.446789 6.507122 1.849768
v 2.332223 1.090209 1.606801
v 1.858595 0.930744 1.010951
v 1.814329 6.951843 1.130669
v 1.992738 6.970847 1.387467
v 2.191483 6.763073 1.558731
v 2.307691 6.656824 1.564367
v 2.315442 6.439225 1.646949
v 2.227792 1.671403 1.647305
v 2.262685 1.460767 1.681357
v 2.189659 1.215298 1.549813
v 1.813763 1.025781 0.996827
v 1.859397 6.830163 1.133145
v 2.089375 6.756950 1.327131
v 2.225650 1.458882 1.587401
v 2.161426 1.291976 1.486798
v 1.805073 1.125973 0.963246
v 1.941126 6.732072 1.109852
v 2.168907 1.364431 1.411471
v 1.833851 1.216068 0.915324
v 2.273490 1.435391 1.401999
v 1.895714 1.282345 0.860350
v 2.282445 1.454774 1.266188
v 1.981244 1.314721 0.806698
v 2.304127 1.409036 1.062211
v 2.077420 1.308258 0.762536
v 2.588419 1.079932 1.489762
v 2.710380 1.303203 1.598635
v 2.604788 1.271313 1.743228
v 2.515243 1.055324 1.551476
v 2.425352 1.058910 1.592537
v 2.428077 1.285944 1.777083
v 2.279686 1.339191 1.679715
v 2.243693 1.372739 1.594626
vt 0.566323 0.955593
vt 0.575792 0.650111
vt 0.653702 0.684106
vt 0.660348 0.915711
vt 0.799498 0.966664
vt 0.752926 0.960413
vt 0.702377 0.655558
vt 0.799498 0.662716
vt 0.315202 0.670536
vt 0.499401 0.671954
vt 0.499401 0.976072
vt 0.310720 0.974452
vt 0.513892 0.652867
vt 0.513892 0.956985
vt 0.669028 0.902545
vt 0.677022 0.693925
vt 0.850092 0.421841
vt 0.991232 0.512454
vt 0.774281 0.499606
vt 0.778387 0.419519
vt 0.115482 0.748456
vt 0.115408 0.959982
vt 0.011113 0.960732
vt 0.011113 0.748419
vt 0.803681 0.407169
vt 0.803681 0.266234
vt 0.936479 0.225144
vt 0.938130 0.371307
vt 0.236726 0.755988
vt 0.022777 0.685807
vt 0.064068 0.665144
vt 0.199405 0.704469
vt 0.026299 0.470579
vt 0.061665 0.526155
vt 0.236726 0.524925
vt 0.202483 0.565354
vt 0.741343 0.401766
vt 0.741343 0.260831
vt 0.757745 0.260831
vt 0.757745 0.401766
vt 0.763924 0.399981
vt 0.763924 0.260831
vt 0.780326 0.260831
vt 0.780326 0.399981
vt 0.804513 0.881482
vt 0.804513 0.666846
vt 0.884703 0.666194
vt 0.884783 0.881451
vt 0.685492 0.041035
vt 0.676917 0.121823
vt 0.452398 0.168974
vt 0.474467 0.064389
vt 0.670224 0.206562
vt 0.462185 0.213909
vt 0.674354 0.438226
vt 0.458260 0.422645
vt 0.680913 0.540149
vt 0.465727 0.524290
vt 0.685492 0.611746
vt 0.473531 0.577957
vt 0.875131 0.117243
vt 0.991232 0.023018
vt 0.951201 0.155177
vt 0.946034 0.386820
vt 0.799216 0.011625
vt 0.793903 0.115787
vt 0.951923 0.521562
vt 0.932375 0.536968
vt 0.944327 0.518054
vt 0.914935 0.562666
vt 0.907033 0.558886
vt 0.897539 0.583037
vt 0.898253 0.571135
vt 0.959458 0.525961
vt 0.951689 0.548030
vt 0.931728 0.571236
vt 0.913343 0.587351
vt 0.913290 0.608012
vt 0.897378 0.609313
vt 0.908070 0.917583
vt 0.895102 0.918407
vt 0.907489 0.931225
vt 0.895107 0.933635
vt 0.966455 0.531485
vt 0.921791 0.589598
vt 0.921417 0.608518
vt 0.972766 0.537892
vt 0.921018 0.917888
vt 0.920926 0.931685
vt 0.928316 0.971384
vt 0.957728 0.992368
vt 0.952300 0.996402
vt 0.978002 0.545138
vt 0.962453 0.559110
vt 0.946901 0.578987
vt 0.938929 0.594054
vt 0.937031 0.611592
vt 0.924743 0.957374
vt 0.963024 0.988160
vt 0.982559 0.552801
vt 0.967120 0.565552
vt 0.960253 0.587808
vt 0.955885 0.598914
vt 0.952213 0.616208
vt 0.939696 0.920384
vt 0.933523 0.934125
vt 0.936665 0.952882
vt 0.968152 0.983773
vt 0.986519 0.560547
vt 0.975687 0.578265
vt 0.939641 0.936557
vt 0.942799 0.950357
vt 0.973046 0.979170
vt 0.990073 0.568144
vt 0.948862 0.947274
vt 0.977677 0.974337
vt 0.950945 0.939445
vt 0.982016 0.969238
vt 0.959698 0.939418
vt 0.986141 0.963901
vt 0.973043 0.940471
vt 0.990073 0.958416
vt 0.905290 0.961711
vt 0.897951 0.944291
vt 0.908945 0.942808
vt 0.911941 0.960999
vt 0.918592 0.959799
vt 0.919680 0.941887
vt 0.931004 0.941624
vt 0.937096 0.941693
vn 0.773197 -0.006148 0.634136
vn 0.758313 -0.001262 0.651890
vn 0.775742 -0.002777 0.631045
vn 0.757147 0.006694 0.653211
vn 0.738176 0.008103 0.674559
vn 0.795721 -0.005288 0.605640
vn 0.766421 -0.001311 0.642337
vn 0.778938 -0.003380 0.627092
vn -0.791293 -0.008627 0.611377
vn -0.784679 -0.002018 0.619899
vn -0.779062 0.003500 0.626937
vn -0.772555 0.009787 0.634873
vn 0.753855 -0.005143 0.657021
vn 0.770280 -0.009758 0.637631
vn 0.778943 -0.009688 0.627020
vn 0.353078 0.055640 0.933938
vn 0.780145 0.005367 0.625575
vn 0.777819 0.002142 0.628485
vn 0.779084 0.003893 0.626907
vn 0.769083 -0.009743 0.639075
vn -0.804840 0.000000 0.593492
vn -0.802702 0.007214 0.596337
vn -0.803966 0.002969 0.594667
vn -0.801814 0.010157 0.597487
vn 0.000000 1.000000 0.000000
vn 0.000000 1.000000 0.000000
vn 0.000000 1.000000 0.000000
vn 0.000000 1.000000 0.000000
vn 0.000000 1.000000 -0.000001
vn 0.000000 1.000000 0.000000
vn 0.000000 1.000000 -0.000000
vn 0.000000 1.000000 0.000000
vn 0.000000 1.000000 0.000002
vn 0.000000 1.000000 0.000001
vn 0.000000 1.000000 -0.000001
vn 0.000000 1.000000 -0.000001
vn 0.798594 0.000000 0.601870
vn 0.798596 0.000000 0.601868
vn 0.798594 0.000000 0.601870
vn 0.798596 0.000000 0.601868
vn -0.787354 0.000000 0.616501
vn -0.787356 0.000000 0.616499
vn -0.787354 0.000000 0.616501
vn -0.787356 0.000000 0.616499
vn -0.793175 0.000000 0.608994
vn -0.791385 0.007751 0.611269
vn -0.792653 0.002284 0.609668
vn -0.790851 0.010019 0.611927
vn 0.034220 0.999101 -0.025032
vn -0.129244 0.989320 0.067391
vn 0.043269 0.998262 -0.040018
vn -0.202037 0.963523 0.175513
vn -0.695585 0.319466 0.643508
vn -0.703982 0.131562 0.697926
vn -0.664832 -0.320603 0.674694
vn -0.670044 -0.236405 0.703672
vn -0.172232 -0.970039 0.171350
vn -0.255327 -0.911229 0.323217
vn -0.021293 -0.999632 0.016838
vn -0.056937 -0.995808 0.071582
vn 0.756456 -0.007666 0.654000
vn 0.761812 -0.004539 0.647782
vn 0.775560 0.003619 0.631263
vn 0.780145 0.005367 0.625576
vn 0.755304 -0.009568 0.655305
vn 0.755304 -0.009568 0.655305
vn 0.200970 0.979309 -0.023752
vn 0.161216 0.982600 0.092235
vn 0.390912 0.885938 -0.249604
vn 0.317641 0.893541 0.317314
vn 0.542711 0.837109 0.068657
vn 0.791311 0.389604 0.471206
vn 0.799615 0.541864 0.258841
vn -0.025839 0.996190 0.083292
vn -0.141793 0.929985 0.339149
vn -0.028811 0.805145 0.592378
vn 0.627744 0.446896 0.637355
vn 0.675471 -0.009098 0.737330
vn 0.808147 -0.015786 0.588769
vn 0.818236 -0.043489 0.573235
vn 0.543704 -0.037762 0.838427
vn 0.532680 -0.207018 0.820607
vn 0.807379 -0.175540 0.563316
vn -0.401073 0.885547 0.234407
vn -0.006221 0.372358 0.928068
vn 0.013102 0.015576 0.999793
vn -0.630288 0.650482 0.423804
vn -0.401481 -0.009034 0.915823
vn -0.284928 -0.167464 0.943807
vn -0.422484 -0.727422 0.540708
vn -0.428629 -0.699487 0.571836
vn -0.266452 -0.845808 0.462181
vn -0.790345 0.318083 0.523620
vn -0.639054 0.479896 0.601091
vn -0.485385 0.307242 0.818537
vn -0.436871 0.170665 0.883186
vn -0.513220 0.016461 0.858099
vn -0.498392 -0.554008 0.666843
vn -0.654095 -0.433968 0.619541
vn -0.776079 -0.185076 0.602867
vn -0.818825 -0.062372 0.570644
vn -0.701926 -0.296615 0.647549
vn -0.789600 -0.118813 0.602010
vn -0.836752 0.010290 0.547485
vn -0.717889 0.008674 0.696104
vn -0.699773 -0.036585 0.713428
vn -0.811062 -0.078068 0.579727
vn -0.709909 -0.296907 0.638652
vn -0.729198 -0.482581 0.485166
vn -0.698235 -0.438749 0.565656
vn -0.957811 0.058530 0.281376
vn -0.830689 0.289685 0.475436
vn -0.839398 0.267067 0.473378
vn -0.610199 -0.624251 0.487819
vn -0.724981 0.617602 0.304910
vn -0.697000 0.678592 0.231742
vn -0.536160 0.842689 0.049072
vn -0.523177 0.846560 0.098091
vn -0.256637 0.957687 -0.130284
vn -0.395372 0.918488 0.007831
vn -0.062094 0.959260 -0.275615
vn -0.100019 0.967833 -0.230857
vn 0.784462 -0.383234 0.487597
vn 0.484130 -0.438665 0.757094
vn 0.654438 -0.623148 0.428250
vn 0.448396 -0.690157 0.568000
vn 0.036492 -0.703957 0.709305
vn -0.186565 -0.369741 0.910212
vn -0.660753 -0.203591 0.722465
vn -0.910649 0.032318 0.411915
s 1
g immershion_refrigirator immershion_refrigirator
usemtl immershion_refrigirator_tex
f 5/1/1 2/2/2 4/4/3
f 4/4/3 2/2/2 3/3/4
s 2
f 7/5/5 12/8/6 8/6/7
f 12/8/6 11/7/8 8/6/7
s 3
f 12/9/9 1/10/10 7/12/11
f 7/12/11 1/10/10 6/11/12
s 1
f 2/2/2 5/1/1 1/13/13
f 1/13/13 5/1/1 6/14/14
s 2
f 8/6/7 11/7/8 9/15/15
f 11/7/8 10/16/16 9/15/15
s 4
f 109/18/17 110/19/18 108/17/19
f 108/17/19 110/19/18 111/20/20
s 5
f 112/21/21 113/22/22 115/24/23
f 115/24/23 113/22/22 114/23/24
s 6
f 116/25/25 117/26/26 119/28/27
f 119/28/27 117/26/26 118/27/28
s 7
f 120/29/29 121/30/30 123/32/31
f 123/32/31 121/30/30 122/31/32
f 110/33/33 124/34/34 121/30/30
f 121/30/30 124/34/34 122/31/32
f 110/33/33 109/35/35 124/34/34
f 124/34/34 109/35/35 125/36/36
f 120/29/29 123/32/31 109/35/35
f 109/35/35 123/32/31 125/36/36
s 9
f 123/37/37 122/38/38 116/40/39
f 116/40/39 122/38/38 117/39/40
s 10
f 125/41/41 123/42/42 119/44/43
f 119/44/43 123/42/42 116/43/44
s 11
f 126/45/45 111/46/46 121/48/47
f 121/48/47 111/46/46 110/47/48
s 12
f 114/49/49 127/50/50 115/52/51
f 115/52/51 127/50/50 128/51/52
f 127/50/50 129/53/53 128/51/52
f 128/51/52 129/53/53 130/54/54
f 131/55/55 132/56/56 129/53/53
f 129/53/53 132/56/56 130/54/54
f 108/57/57 133/58/58 131/55/55
f 131/55/55 133/58/58 132/56/56
f 111/59/59 126/60/60 108/57/57
f 108/57/57 126/60/60 133/58/58
s 4
f 127/61/61 134/62/62 129/63/63
f 131/64/64 109/18/17 108/17/19
f 134/62/62 109/18/17 129/63/63
f 129/63/63 109/18/17 131/64/64
f 134/62/62 127/61/61 113/65/65
f 113/65/65 127/61/61 114/66/66
s 16
f 135/67/67 136/68/68 137/69/69
f 138/70/70 139/71/71 136/68/68
f 138/70/70 140/72/72 141/73/73
f 142/74/74 143/75/75 135/67/67
f 135/67/67 143/75/75 136/68/68
f 138/70/70 136/68/68 144/76/76
f 144/76/76 136/68/68 143/75/75
f 144/76/76 145/77/77 138/70/70
f 138/70/70 145/77/77 140/72/72
f 146/78/78 147/79/79 145/77/77
f 145/77/77 147/79/79 140/72/72
f 149/81/80 147/79/79 148/80/81
f 148/80/81 147/79/79 146/78/78
f 148/80/81 150/82/82 149/81/80
f 149/81/80 150/82/82 151/83/83
f 152/84/84 143/75/75 142/74/74
f 144/76/76 153/85/85 145/77/77
f 154/86/86 146/78/78 153/85/85
f 153/85/85 146/78/78 145/77/77
f 148/80/81 146/78/78 154/86/86
f 155/87/87 143/75/75 152/84/84
f 156/88/88 148/80/81 154/86/86
f 156/88/88 157/89/89 148/80/81
f 148/80/81 157/89/89 150/82/82
f 158/90/90 159/91/91 160/92/92
f 161/93/93 162/94/94 155/87/87
f 155/87/87 162/94/94 143/75/75
f 144/76/76 143/75/75 163/95/95
f 163/95/95 143/75/75 162/94/94
f 163/95/95 164/96/96 144/76/76
f 144/76/76 164/96/96 153/85/85
f 165/97/97 154/86/86 164/96/96
f 164/96/96 154/86/86 153/85/85
f 156/88/88 154/86/86 165/97/97
f 166/98/98 167/99/99 158/90/90
f 158/90/90 167/99/99 159/91/91
f 169/101/100 162/94/94 168/100/101
f 168/100/101 162/94/94 161/93/93
f 170/102/102 163/95/95 169/101/100
f 169/101/100 163/95/95 162/94/94
f 171/103/103 164/96/96 170/102/102
f 170/102/102 164/96/96 163/95/95
f 172/104/104 165/97/97 171/103/103
f 171/103/103 165/97/97 164/96/96
f 173/105/105 156/88/88 172/104/104
f 172/104/104 156/88/88 165/97/97
f 174/106/106 157/89/89 173/105/105
f 173/105/105 157/89/89 156/88/88
f 176/108/107 167/99/99 175/107/108
f 175/107/108 167/99/99 166/98/98
f 178/110/109 169/101/100 177/109/110
f 177/109/110 169/101/100 168/100/101
f 170/102/102 169/101/100 178/110/109
f 173/105/105 179/111/111 174/106/106
f 181/113/112 176/108/107 180/112/113
f 180/112/113 176/108/107 175/107/108
f 182/114/114 178/110/109 177/109/110
f 184/116/115 181/113/112 183/115/116
f 183/115/116 181/113/112 180/112/113
f 185/117/117 186/118/118 183/115/116
f 183/115/116 186/118/118 184/116/115
f 188/120/119 186/118/118 187/119/120
f 187/119/120 186/118/118 185/117/117
f 190/122/121 188/120/119 189/121/122
f 189/121/122 188/120/119 187/119/120
f 138/70/70 141/73/73 139/71/71
f 192/124/123 193/125/124 191/123/125
f 191/123/125 193/125/124 194/126/126
f 194/126/126 193/125/124 195/127/127
f 193/125/124 196/128/128 195/127/127
f 195/127/127 196/128/128 166/98/98
f 196/128/128 197/129/129 166/98/98
f 166/98/98 197/129/129 175/107/108
f 197/129/129 198/130/130 175/107/108
f 175/107/108 198/130/130 180/112/113
f 180/112/113 198/130/130 183/115/116
f 183/115/116 198/130/130 179/111/111
f 183/115/116 179/111/111 185/117/117
f 193/125/124 192/124/123 150/82/82
f 150/82/82 192/124/123 151/83/83
f 157/89/89 196/128/128 150/82/82
f 150/82/82 196/128/128 193/125/124
f 166/98/98 158/90/90 195/127/127
f 174/106/106 197/129/129 157/89/89
f 157/89/89 197/129/129 196/128/128
f 179/111/111 198/130/130 174/106/106
f 174/106/106 198/130/130 197/129/129
